<svg xmlns="http://www.w3.org/2000/svg" viewBox="0 0 1200 800" width="1200" height="800" role="img" aria-label="Ilustração dúvidas: ícones de interrogação, lâmpada, lupa e documentos"> 
  <defs>
    <linearGradient id="g" x1="0" x2="1">
      <stop offset="0" stop-color="#f26b21"/>
      <stop offset="1" stop-color="#ff9a57"/>
    </linearGradient>
    <style>
      .bg{fill:#fff}
      .accent{fill:url(#g)}
      .dark{fill:#111827}
      .muted{fill:#f3f4f6}
      .soft{fill:#fff7f2}
      .label{font-family:Inter, system-ui, -apple-system, "Segoe UI", Roboto, "Helvetica Neue", Arial}
    </style>
  </defs>

  <rect width="1200" height="800" class="bg" rx="16"/>

  <!-- central question mark badge -->
  <g transform="translate(220 120)">
    <rect x="0" y="0" width="760" height="560" rx="28" class="muted"/>
    <g transform="translate(120 60)">
      <circle cx="240" cy="160" r="96" class="accent"/>
      <text x="240" y="190" text-anchor="middle" font-size="140" font-family="Inter, Arial" fill="#fff">?</text>
      <rect x="430" y="40" width="220" height="140" rx="16" class="soft"/>
      <g transform="translate(450 60)">
        <rect x="8" y="12" width="180" height="20" rx="8" fill="#fff" opacity="0.9"/>
        <rect x="8" y="44" width="140" height="12" rx="6" fill="#fff" opacity="0.6"/>
      </g>
      <g transform="translate(80 320)">
        <!-- magnifier -->
        <circle cx="40" cy="40" r="40" fill="#fff"/>
        <circle cx="40" cy="40" r="28" class="muted"/>
        <path d="M64 64 L94 94" stroke="#111827" stroke-width="10" stroke-linecap="round"/>
      </g>
      <g transform="translate(320 320)">
        <!-- lightbulb -->
        <ellipse cx="40" cy="40" rx="36" ry="46" class="soft"/>
        <rect x="28" y="74" width="24" height="18" rx="6" class="dark"/>
        <rect x="32" y="92" width="16" height="6" rx="3" class="accent"/>
      </g>
      <g transform="translate(540 300)">
        <!-- documents stack -->
        <rect x="0" y="12" width="120" height="80" rx="8" class="soft"/>
        <rect x="8" y="-4" width="120" height="80" rx="8" class="muted"/>
        <rect x="16" y="-20" width="120" height="80" rx="8" class="muted"/>
      </g>
    </g>
  </g>

  <!-- headline -->
  <g transform="translate(80 64)">
    <text x="0" y="40" font-size="36" class="label dark">Dúvidas frequentes</text>
    <text x="0" y="76" font-size="16" fill="#6b7280">Respostas rápidas sobre processos, coleta e resultados</text>
  </g>

  <!-- small brand block -->
  <g transform="translate(1000 720)">
    <rect width="160" height="56" rx="12" class="accent"/>
    <text x="36" y="36" font-size="16" font-family="Inter, Arial" fill="#fff">Jmbio</text>
  </g>

</svg>