<svg xmlns="http://www.w3.org/2000/svg" viewBox="0 0 1400 900" width="1400" height="900" role="img" aria-label="Ilustração Dúvidas Frequentes — ícones de interrogação, lupa, lâmpada, documentos e badges de tópicos"> 
  <defs>
    <linearGradient id="accent" x1="0" x2="1">
      <stop offset="0" stop-color="#f26b21"/>
      <stop offset="1" stop-color="#ff9440"/>
    </linearGradient>
    <style>
      .bg{fill:#ffffff}
      .card{fill:#f8fafb;stroke:#e6e6e6;rx:18}
      .accent{fill:url(#accent)}
      .dark{fill:#111827}
      .muted{fill:#eef2f7}
      .note{fill:#6b7280}
      .label{font-family:Inter, system-ui, -apple-system, "Segoe UI", Roboto, "Helvetica Neue", Arial}
    </style>
  </defs>

  <rect width="1400" height="900" class="bg"/>

  <!-- Left informational panel -->
  <g transform="translate(80 100)">
    <rect x="0" y="0" width="520" height="700" rx="24" fill="#fff" stroke="#e8eaed"/>
    <text x="32" y="56" class="label dark" font-size="28">Dúvidas rápidas</text>
    <text x="32" y="88" class="label note" font-size="14">Encontre respostas por tópico</text>

    <!-- topic badges -->
    <g transform="translate(32 120)">
      <g transform="translate(0 0)">
        <rect x="0" y="0" width="220" height="56" rx="12" class="muted"/>
        <text x="80" y="36" font-size="16" class="label dark">Legislação</text>
        <circle cx="28" cy="28" r="18" class="accent"/>
        <text x="22" y="34" font-size="18" fill="#fff">①</text>
      </g>
      <g transform="translate(0 80)">
        <rect x="0" y="0" width="220" height="56" rx="12" class="muted"/>
        <text x="80" y="36" font-size="16" class="label dark">Coleta</text>
        <circle cx="28" cy="28" r="18" class="accent"/>
        <text x="22" y="34" font-size="18" fill="#fff">②</text>
      </g>
      <g transform="translate(0 160)">
        <rect x="0" y="0" width="220" height="56" rx="12" class="muted"/>
        <text x="80" y="36" font-size="16" class="label dark">Resultados</text>
        <circle cx="28" cy="28" r="18" class="accent"/>
        <text x="22" y="34" font-size="18" fill="#fff">③</text>
      </g>
      <g transform="translate(0 240)">
        <rect x="0" y="0" width="220" height="56" rx="12" class="muted"/>
        <text x="80" y="36" font-size="16" class="label dark">Empresas</text>
        <circle cx="28" cy="28" r="18" class="accent"/>
        <text x="22" y="34" font-size="18" fill="#fff">④</text>
      </g>
    </g>

    <!-- quick-search box -->
    <g transform="translate(32 360)">
      <rect x="0" y="0" width="456" height="56" rx="12" fill="#fff" stroke="#e6e6e6"/>
      <text x="64" y="36" font-size="14" class="note">Pesquisar por palavra-chave — ex: amostra, laudo, prazo</text>
      <rect x="384" y="8" width="56" height="40" rx="10" class="accent"/>
      <text x="402" y="36" font-size="14" fill="#fff">OK</text>
    </g>

    <!-- FAQ quick list -->
    <g transform="translate(32 440)">
      <text x="0" y="0" font-size="16" class="label dark">Perguntas populares</text>
      <g transform="translate(0 18)">
        <g transform="translate(0 12)">
          <circle cx="12" cy="12" r="8" fill="#f26b21"/>
          <text x="28" y="18" font-size="14" class="note">Quem precisa do exame?</text>
        </g>
        <g transform="translate(0 48)">
          <circle cx="12" cy="12" r="8" fill="#f26b21"/>
          <text x="28" y="18" font-size="14" class="note">Quais drogas são analisadas?</text>
        </g>
        <g transform="translate(0 84)">
          <circle cx="12" cy="12" r="8" fill="#f26b21"/>
          <text x="28" y="18" font-size="14" class="note">Quanto tempo leva o resultado?</text>
        </g>
      </g>
    </g>
  </g>

  <!-- Right illustration panel: icons and details -->
  <g transform="translate(640 120)">
    <rect x="0" y="0" width="660" height="700" rx="24" fill="#fff" stroke="#e8eaed"/>

    <!-- large question mark centerpiece -->
    <g transform="translate(120 80)">
      <circle cx="180" cy="160" r="140" class="muted"/>
      <circle cx="180" cy="160" r="110" class="accent"/>
      <text x="180" y="210" text-anchor="middle" font-size="170" font-family="Inter, Arial" fill="#fff">?</text>
    </g>

    <!-- icon row beneath -->
    <g transform="translate(80 420)">
      <!-- magnifier -->
      <g transform="translate(0 0)">
        <rect x="0" y="0" width="160" height="120" rx="14" fill="#fff" stroke="#e6e6e6"/>
        <circle cx="44" cy="54" r="28" class="muted"/>
        <path d="M72 82 L100 110" stroke="#111827" stroke-width="8" stroke-linecap="round"/>
        <text x="88" y="48" font-size="14" class="note">Buscar</text>
      </g>

      <!-- docs -->
      <g transform="translate(200 0)">
        <rect x="0" y="0" width="160" height="120" rx="14" fill="#fff" stroke="#e6e6e6"/>
        <rect x="28" y="20" width="104" height="12" rx="6" fill="#eef2f7"/>
        <rect x="28" y="44" width="72" height="10" rx="6" fill="#eef2f7"/>
        <text x="28" y="96" font-size="14" class="note">Documentos</text>
      </g>

      <!-- checklist -->
      <g transform="translate(400 0)">
        <rect x="0" y="0" width="160" height="120" rx="14" fill="#fff" stroke="#e6e6e6"/>
        <path d="M24 36 L44 56 L84 16" stroke="#f26b21" stroke-width="8" fill="none" stroke-linecap="round"/>
        <text x="28" y="96" font-size="14" class="note">Passos</text>
      </g>
    </g>

    <!-- helpful tips box -->
    <g transform="translate(80 560)">
      <rect x="0" y="0" width="500" height="120" rx="12" fill="#fff" stroke="#e6e6e6"/>
      <text x="22" y="36" font-size="16" class="label dark">Dica rápida</text>
      <text x="22" y="64" font-size="14" class="note">Precisa de ajuda imediata? Use o botão Resultado no topo ou entre em contato pelo suporte.</text>
      <rect x="380" y="28" width="100" height="44" rx="10" class="accent"/>
      <text x="402" y="58" font-size="14" fill="#fff">Suporte</text>
    </g>
  </g>

  <!-- brand mark -->
  <g transform="translate(1180 820)">
    <rect width="180" height="60" rx="12" class="accent"/>
    <text x="42" y="38" font-size="18" font-family="Inter, Arial" fill="#fff">Jmbio</text>
  </g>

</svg>